<svg fill="#ffffff" height="200px" width="200px" version="1.1" id="Capa_1" xmlns="http://www.w3.org/2000/svg" xmlns:xlink="http://www.w3.org/1999/xlink" viewBox="0 0 296.179 296.179" xml:space="preserve" stroke="#ffffff"><g id="SVGRepo_bgCarrier" stroke-width="0"></g><g id="SVGRepo_tracerCarrier" stroke-linecap="round" stroke-linejoin="round"></g><g id="SVGRepo_iconCarrier"> <path d="M283.568,135.915c0.008-0.1,0.013-0.201,0.015-0.303c0-0.023,0.003-0.047,0.004-0.07c0-0.014,0.002-0.028,0.002-0.042 c0-74.715-60.785-135.5-135.5-135.5s-135.5,60.785-135.5,135.5c0,0.14,0.011,0.277,0.021,0.415 c-0.169,1.506,0.261,3.072,1.354,4.288l128.545,143.011v7.465c0,3.038,2.462,5.5,5.5,5.5c3.038,0,5.5-2.462,5.5-5.5v-7.177 l128.706-143.3C283.308,138.986,283.737,137.42,283.568,135.915z M25.294,136.352c7.115-5.849,15.943-9.032,25.295-9.032 c10.379,0,20.114,3.922,27.576,11.059l50.597,113.085L25.294,136.352z M142.589,255.434l-53.01-118.478 c7.234-6.233,16.342-9.636,26.01-9.636c10.113,0,19.617,3.718,27,10.509V255.434z M167.414,251.56l50.602-113.182 c7.462-7.136,17.195-11.058,27.574-11.058c9.353,0,18.182,3.184,25.298,9.034L167.414,251.56z M153.589,255.53v-117.7 c7.383-6.792,16.887-10.51,27-10.51c9.669,0,18.777,3.404,26.012,9.637L153.589,255.53z M245.59,116.32 C245.589,116.32,245.59,116.32,245.59,116.32c-12.029,0-23.387,4.122-32.5,11.704c-9.114-7.583-20.47-11.704-32.5-11.704 c-0.001,0,0,0,0,0c-12.029,0-23.386,4.122-32.5,11.704c-9.114-7.583-20.47-11.704-32.5-11.704c-0.001,0,0,0,0,0 c-12.029,0-23.386,4.122-32.5,11.704c-9.114-7.583-20.47-11.704-32.5-11.704c-9.488,0-18.556,2.565-26.436,7.368 C30.123,60.559,83.424,11,148.089,11c64.665,0,117.967,49.559,123.936,112.688C264.145,118.885,255.077,116.32,245.59,116.32z"></path> </g></svg>